<?xml version="1.0" encoding="UTF-8" standalone="no" ?>
<!DOCTYPE svg PUBLIC "-//W3C//DTD SVG 1.1//EN" "http://www.w3.org/Graphics/SVG/1.1/DTD/svg11.dtd">
<svg xmlns="http://www.w3.org/2000/svg" xmlns:xlink="http://www.w3.org/1999/xlink" version="1.1" width="1440" height="3072" viewBox="0 0 1440 3072" xml:space="preserve">
<desc>Created with Fabric.js 5.3.0</desc>
<defs>
</defs>
<g transform="matrix(1 0 0 1 651.9827322906 2573.1989171584)" id="EONrXtG1_lxyc6vnIUcr_"  >
<path style="stroke: rgb(0,0,0); stroke-width: 0; stroke-dasharray: none; stroke-linecap: butt; stroke-dashoffset: 0; stroke-linejoin: miter; stroke-miterlimit: 4; fill: rgb(67,74,60); fill-rule: nonzero; opacity: 1;"  transform=" translate(-0.0000028907, 4.667e-7)" d="M -559.65051 -749.05234 C 539.1933399999999 -966.77991 1294.4358699999998 -840.90616 1294.4358699999998 -840.90616 L 1201.2769399999997 877.1004800000001 L -1199.2252500000004 829.47257 C -1199.2252500000004 829.47257 -1658.4943500000004 -531.3247700000001 -559.6505000000004 -749.05235 z" stroke-linecap="round" />
</g>
<g transform="matrix(1 0 0 1 600.7587019273 1867.0162122626)" id="SR3gUtyxu4OV0GI_mZjSF"  >
<path style="stroke: rgb(0,0,0); stroke-width: 0; stroke-dasharray: none; stroke-linecap: butt; stroke-dashoffset: 0; stroke-linejoin: miter; stroke-miterlimit: 4; fill: rgb(51,58,35); fill-rule: nonzero; opacity: 1;"  transform=" translate(0.0000019446, 0.0000016255)" d="M 1180.42428 -1020.69119 C 612.29139 996.6908699999999 -867.57572 2035.65512 -867.57572 2035.65512 L -1252.00097 -1425.08952 C -1252.00097 -1425.08952 1748.55717 -3038.07325 1180.4242799999997 -1020.69119 z" stroke-linecap="round" />
</g>
<g transform="matrix(1 0 0 1 697.2344858701 1484.654711964)" id="hHwdS6UtikfbNbzsHt9Gm"  >
<path style="stroke: rgb(0,0,0); stroke-width: 0; stroke-dasharray: none; stroke-linecap: butt; stroke-dashoffset: 0; stroke-linejoin: miter; stroke-miterlimit: 4; fill: rgb(46,53,29); fill-rule: nonzero; opacity: 1;"  transform=" translate(-0.0000041126, -0.0000029556)" d="M 943.00472 -780.44209 C 541.5695000000001 76.86023999999998 -826.03182 1335.59778 -826.03182 1335.59778 L -1156.02518 -1276.84983 L 1055.2705 -1246.5151700000001 C 1055.2705 -1246.5151700000001 1344.4399400000002 -1637.7444100000002 943.0047200000001 -780.4420800000001 z" stroke-linecap="round" />
</g>
<g transform="matrix(1 0 0 1 727.6225734319 659.9616865649)" id="0NUJTMqIkaSn2paY712hc"  >
<path style="stroke: rgb(0,0,0); stroke-width: 0; stroke-dasharray: none; stroke-linecap: butt; stroke-dashoffset: 0; stroke-linejoin: miter; stroke-miterlimit: 4; fill: rgb(38,44,28); fill-rule: nonzero; opacity: 1;"  transform=" translate(-2.686e-7, -0.0000077907)" d="M 830.96879 -681.05178 C 436.33756 462.01799000000005 -880.2338699999999 1183.24058 -880.2338699999999 1183.24058 L -880.2338699999999 -658.2606800000001 C -880.2338699999999 -658.2606800000001 1225.6000199999999 -1824.12154 830.96879 -681.0517800000001 z" stroke-linecap="round" />
</g>
<g transform="matrix(1 0 0 1 526.0959775445 425.6880485744)" id="wRqKvC7NjS3IUaW_PxeA5"  >
<path style="stroke: rgb(0,0,0); stroke-width: 0; stroke-dasharray: none; stroke-linecap: butt; stroke-dashoffset: 0; stroke-linejoin: miter; stroke-miterlimit: 4; fill: rgb(28,33,21); fill-rule: nonzero; opacity: 1;"  transform=" translate(-4.107e-7, -0.0000033333)" d="M 845.17977 -494.61203 C 375.70468999999997 502.17202 -910.2488000000001 937.62717 -910.2488000000001 937.62717 L -910.2488000000001 -494.61203 C -910.2488000000001 -494.61203 1314.6548500000001 -1491.39608 845.17977 -494.61203 z" stroke-linecap="round" />
</g>
<g transform="matrix(1 0 0 1 509.0860107671 204.4028846933)" id="ZCiAtqcHtKb7CJyl61Hk0"  >
<path style="stroke: rgb(0,0,0); stroke-width: 0; stroke-dasharray: none; stroke-linecap: butt; stroke-dashoffset: 0; stroke-linejoin: miter; stroke-miterlimit: 4; fill: rgb(13,18,11); fill-rule: nonzero; opacity: 1;"  transform=" translate(-0.0000029265, 0.000005)" d="M 594.66962 -257.56098 C -181.52549999999997 606.43902 -764.5498899999999 641.56097 -764.5498899999999 641.56097 L -764.5498899999999 -257.56098 C -764.5498899999999 -257.56098 1370.8647400000004 -1121.56098 594.66962 -257.56098 z" stroke-linecap="round" />
</g>
<g transform="matrix(0.5 0 0 1 1400.25 -140)" id="RvE1yyjXkR7qFQ37DTZsg"  >
<path style="stroke: rgb(0,0,0); stroke-width: 1; stroke-dasharray: none; stroke-linecap: butt; stroke-dashoffset: 0; stroke-linejoin: miter; stroke-miterlimit: 4; fill: rgb(255,255,255); fill-opacity: 0; fill-rule: nonzero; opacity: 1;"  transform=" translate(0, 0)" d="M 0 0 z" stroke-linecap="round" />
</g>
<g transform="matrix(1 0 0 1 1608.3564437005 360.6112956811)" id="2Sfw_sgvVk54jTxj5r7xm"  >
<path style="stroke: rgb(0,0,0); stroke-width: 1; stroke-dasharray: none; stroke-linecap: butt; stroke-dashoffset: 0; stroke-linejoin: miter; stroke-miterlimit: 4; fill: rgb(255,255,255); fill-opacity: 0; fill-rule: nonzero; opacity: 1;"  transform=" translate(0, 0)" d="M 0 0" stroke-linecap="round" />
</g>
<g transform="matrix(1 0 0 1 1670.8571428571 816.4784053156)" id="xMimk0CqZ2Se_VKder7bu"  >
<path style="stroke: rgb(0,0,0); stroke-width: 1; stroke-dasharray: none; stroke-linecap: butt; stroke-dashoffset: 0; stroke-linejoin: miter; stroke-miterlimit: 4; fill: rgb(255,255,255); fill-opacity: 0; fill-rule: nonzero; opacity: 1;"  transform=" translate(0, 0)" d="M 0 0" stroke-linecap="round" />
</g>
<g transform="matrix(1 0 0 1 2062.0863787375 901.5282392027)" id="N9pWUycR-oDTCLO792wJR"  >
<path style="stroke: rgb(0,0,0); stroke-width: 1; stroke-dasharray: none; stroke-linecap: butt; stroke-dashoffset: 0; stroke-linejoin: miter; stroke-miterlimit: 4; fill: rgb(255,255,255); fill-opacity: 0; fill-rule: nonzero; opacity: 1;"  transform=" translate(0, 0)" d="M 0 0" stroke-linecap="round" />
</g>
</svg>